# xmcd
#
# Track frame offsets: 
#        150
#        17040
#        35402
#        53232
#        74380
#        95703
#        121670
#        147567
#        168732
#        189937
#        208694
#        230339
#        249772
#        251812
#        278364
#
# Disc length: 3767 seconds
#
# Revision: 15
# Processed by: cddbd v1.5.2PL0 Copyright (c) Steve Scherf et al.
# Submitted via: ExactAudioCopy v1.0b3
#
DISCID=d10eb50f
DTITLE=Popa Chubby - Booty And The Beast
DYEAR=1995
DGENRE=Blues
TTITLE0=Palace Of The King
TTITLE1=Lookin' Back
TTITLE2=Healing In Her Hands
TTITLE3=Sweet Goddess Of Love And Beer
TTITLE4=Stoop Down Baby
TTITLE5=Trouble
TTITLE6=Same Old Blues
TTITLE7=Anything You Want Me To Do
TTITLE8=Low Down And Dirty
TTITLE9=Waitin' For The Light
TTITLE10=Angel On My Shoulder
TTITLE11=You Rub Me The Wrong Way
TTITLE12=Secret Chubby
TTITLE13=Sweat
TTITLE14=Chubby's Goodnight
EXTD=(C) 1995 Sony Music Entertainment\nOKeh/550 Music\nBK 66949
EXTT0=
EXTT1=
EXTT2=
EXTT3=
EXTT4=
EXTT5=
EXTT6=
EXTT7=
EXTT8=
EXTT9=
EXTT10=
EXTT11=
EXTT12=
EXTT13=
EXTT14=
PLAYORDER=
